<?xml version="1.0" encoding="UTF-8"?>
<svg width="600px" height="600px" viewBox="0 0 600 600" version="1.1" xmlns="http://www.w3.org/2000/svg" xmlns:xlink="http://www.w3.org/1999/xlink">
    <title>assets/icon</title>
    <g id="/assets/icon" stroke="none" stroke-width="1" fill="none" fill-rule="evenodd">
        <g id="mqtt-logo" fill="#660066" fill-rule="nonzero">
            <path d="M2.88816275,339.664804 C2.29788131,339.664804 1.70759987,339.664804 1.11731844,339.664804 L1.11731844,568.768532 C1.11731844,585.301791 14.6937915,598.882682 31.2216718,598.882682 L267.039106,598.882682 C264.973121,455.692852 147.507115,339.664804 2.88816275,339.664804 Z" id="Path"></path>
            <path d="M1.7714997,150.837989 C1.1809998,150.837989 0.590499899,150.837989 0,150.837989 L0,248.239009 C194.569717,249.124473 352.823689,405.556414 354.890439,598.882682 L455.865922,598.882682 C454.094422,351.543121 251.257707,150.837989 1.7714997,150.837989 Z" id="Path"></path>
            <path d="M600,569.893527 L600,362.985316 C531.522532,195.333585 393.682112,62.8060717 222.193281,1.11731844 L31.2237913,1.11731844 C14.6947474,1.11731844 1.11731844,14.6947474 1.11731844,31.2237913 L1.11731844,60.4447797 C300.411078,61.3302642 543.919315,302.477209 545.690284,600 L569.893527,600 C586.717733,599.704839 600,586.422571 600,569.893527 Z" id="Path"></path>
            <path d="M521.060364,83.653873 C548.851846,111.439965 577.234637,146.615975 600,177.653631 L600,29.8552692 C600,13.3018526 586.695567,0 570.138939,0 L417.877095,0 C453.355583,24.5345281 490.016687,52.6162169 521.060364,83.653873 Z" id="Path"></path>
        </g>
    </g>
</svg>